<?xml version="1.0" standalone="no"?>
<!DOCTYPE svg PUBLIC "-//W3C//DTD SVG 20010904//EN"
 "http://www.w3.org/TR/2001/REC-SVG-20010904/DTD/svg10.dtd">
<svg version="1.0" xmlns="http://www.w3.org/2000/svg"
 width="1280.000000pt" height="830.000000pt" viewBox="0 0 1280.000000 830.000000"
 preserveAspectRatio="xMidYMid meet">
<metadata>
Created by potrace 1.15, written by Peter Selinger 2001-2017
</metadata>
<g transform="translate(0.000000,830.000000) scale(0.100000,-0.100000)"
fill="#ffffff" stroke="none">
<path d="M109 8285 c-14 -8 -31 -27 -38 -42 -8 -21 -11 -253 -9 -880 l3 -851
24 -26 25 -26 874 2 875 3 18 25 c16 23 18 81 21 888 l3 864 -33 29 -32 29
-853 0 c-716 -1 -856 -3 -878 -15z"/>
<path d="M3065 7819 c-150 -22 -288 -93 -400 -204 -91 -91 -143 -174 -183
-290 l-27 -80 -3 -2125 c-2 -2096 -2 -2126 18 -2205 64 -259 265 -460 532
-532 58 -16 207 -18 2068 -21 1313 -2 2040 1 2108 7 326 33 583 262 646 576
15 72 16 286 14 2190 l-3 2110 -21 61 c-87 253 -266 427 -511 497 l-78 22
-2050 1 c-1131 1 -2077 -2 -2110 -7z"/>
<path d="M222 6063 c-44 -21 -89 -74 -101 -120 -7 -25 -11 -282 -11 -744 l0
-706 23 -44 c13 -24 43 -57 66 -74 l43 -30 726 -3 726 -3 50 25 c54 27 90 70
107 127 6 22 7 280 3 744 -7 751 -6 735 -53 789 -9 10 -33 27 -53 37 -36 18
-70 19 -765 19 -648 0 -732 -2 -761 -17z"/>
<path d="M9551 4324 c-120 -32 -235 -117 -301 -220 -96 -151 -96 -376 -1 -526
l31 -48 -158 0 -158 0 -40 61 c-66 103 -184 184 -305 210 -76 17 -222 6 -288
-20 -333 -134 -427 -549 -184 -812 92 -99 248 -163 383 -157 l55 2 3 -160 2
-160 68 -67 68 -67 469 2 470 3 3 180 2 180 47 47 c45 46 50 48 101 48 51 0
67 -7 215 -92 89 -51 165 -94 169 -96 4 -2 8 139 8 313 0 283 -2 316 -16 311
-8 -3 -85 -46 -170 -96 -142 -82 -160 -90 -208 -90 -49 0 -55 3 -99 48 l-47
48 0 87 0 87 38 0 c21 0 64 7 97 15 201 53 352 233 371 443 31 336 -299 614
-625 526z m99 -184 c0 -78 -1 -80 -24 -80 -13 0 -47 -16 -76 -35 l-52 -35 -54
47 c-30 26 -54 50 -54 53 0 6 41 45 72 69 29 22 131 61 161 61 l27 0 0 -80z
m324 -55 c40 -52 76 -137 83 -194 l6 -51 -77 0 c-53 0 -78 4 -80 13 -2 6 -9
31 -15 54 -7 24 -22 55 -35 70 l-24 28 50 57 c27 32 53 58 58 58 4 0 20 -16
34 -35z m-514 -307 c7 -24 21 -55 31 -70 11 -14 19 -29 19 -32 0 -3 -22 -30
-50 -61 l-49 -54 -35 41 c-36 42 -69 115 -81 181 l-7 37 79 0 80 0 13 -42z
m-807 -108 c29 -11 69 -34 90 -51 l38 -31 -21 -23 -21 -23 -49 33 c-51 34 -88
49 -151 59 -36 6 -57 35 -42 59 8 13 94 0 156 -23z m1240 -55 l58 -53 -47 -33
c-26 -17 -68 -40 -93 -50 -50 -18 -130 -29 -131 -16 0 4 0 38 0 76 l0 69 48
11 c26 7 58 21 72 31 14 11 27 19 30 19 3 0 31 -24 63 -54z m-1654 -69 c9 -11
4 -28 -24 -79 -23 -41 -38 -85 -43 -123 -5 -44 -11 -60 -25 -62 -14 -3 -17 5
-17 51 0 60 18 120 56 184 27 46 35 51 53 29z m70 -510 c18 -21 100 -53 159
-61 43 -6 52 -10 52 -27 0 -19 -5 -20 -58 -15 -91 8 -216 76 -197 106 9 15 30
14 44 -3z"/>
<path d="M760 3943 c-445 -2 -641 -6 -656 -14 -12 -6 -27 -22 -33 -36 -14 -31
-16 -1699 -1 -1737 22 -58 -10 -57 926 -54 l856 3 24 28 24 28 0 864 0 864
-24 28 -24 28 -229 0 c-125 1 -514 0 -863 -2z"/>
<path d="M11348 3667 c-145 -55 -227 -161 -236 -307 -4 -70 2 -100 33 -172 6
-16 1 -18 -43 -18 -48 0 -51 2 -85 48 -90 126 -271 176 -412 113 -63 -28 -140
-104 -172 -170 -24 -49 -28 -68 -28 -146 0 -109 23 -163 100 -241 60 -60 140
-94 227 -97 l58 -1 0 -110 0 -109 49 -49 48 -48 324 2 324 3 3 125 3 125 31
32 c50 51 84 46 218 -32 61 -36 113 -65 116 -65 2 0 4 97 4 215 0 118 -2 215
-5 215 -3 0 -56 -29 -117 -65 -135 -78 -167 -83 -216 -32 -26 27 -32 41 -32
78 0 44 1 44 52 68 213 98 267 383 104 546 -72 72 -131 98 -231 102 -51 2 -93
-2 -117 -10z m-493 -411 c68 -31 81 -48 55 -71 -18 -17 -21 -17 -38 -2 -24 22
-86 47 -117 47 -20 0 -25 5 -25 25 0 22 4 25 38 25 20 0 60 -11 87 -24z m-296
-80 c8 -10 5 -24 -13 -57 -14 -24 -26 -61 -28 -81 -1 -26 -7 -38 -21 -42 -25
-6 -30 12 -17 69 11 49 48 125 61 125 3 0 12 -6 18 -14z m70 -356 c22 -11 58
-22 80 -26 32 -5 41 -11 41 -27 0 -18 -5 -19 -45 -14 -46 7 -118 38 -130 57
-6 10 1 30 11 30 3 0 22 -9 43 -20z"/>
<path d="M12483 2914 c-53 -27 -76 -74 -71 -145 4 -51 2 -59 -13 -59 -9 0 -24
11 -33 25 -42 64 -159 74 -216 20 -95 -91 -36 -255 90 -255 29 0 30 -1 30 -48
0 -38 5 -53 23 -70 22 -20 33 -22 160 -22 l137 0 0 53 c0 40 5 58 18 70 25 23
40 21 87 -8 22 -13 43 -25 48 -25 4 0 7 41 7 90 l0 91 -59 -33 c-58 -32 -60
-32 -80 -14 -27 25 -27 54 2 65 12 5 36 23 52 41 27 28 30 38 30 95 0 61 -2
67 -37 101 -31 32 -44 38 -90 41 -36 2 -63 -2 -85 -13z m-166 -176 c25 -20 2
-26 -36 -10 -22 9 -37 21 -34 25 6 10 52 0 70 -15z m-158 -62 c-7 -20 -17 -36
-21 -36 -11 0 -10 5 7 47 19 46 31 36 14 -11z m91 -138 c0 -11 -15 -10 -45 4
-37 17 -30 27 10 14 19 -6 35 -14 35 -18z"/>
<path d="M6575 1851 c-11 -5 -29 -19 -40 -31 -20 -22 -20 -38 -23 -874 -2
-627 1 -858 9 -879 25 -61 -13 -59 929 -51 l860 7 22 24 23 25 3 851 c2 630
-1 859 -9 880 -25 59 10 57 -911 56 -464 0 -852 -4 -863 -8z"/>
<path d="M8788 1844 c-15 -8 -32 -23 -38 -34 -7 -12 -10 -310 -10 -877 0 -941
-3 -891 58 -914 17 -7 325 -8 881 -3 l855 7 23 25 23 25 0 868 0 867 -31 26
-31 26 -851 0 c-732 -1 -856 -3 -879 -16z"/>
<path d="M4369 1827 c-39 -30 -39 -30 -39 -912 l0 -857 29 -29 29 -29 862 0
862 0 29 29 29 29 0 867 0 866 -25 24 -24 25 -868 0 c-667 -1 -872 -3 -884
-13z"/>
<path d="M10989 1811 l-29 -29 0 -862 0 -862 29 -29 29 -29 862 0 862 0 29 29
29 29 0 862 0 862 -29 29 -29 29 -862 0 -862 0 -29 -29z"/>
<path d="M121 1816 c-52 -29 -50 0 -51 -899 0 -557 3 -845 10 -858 28 -52 3
-50 921 -43 l850 7 18 23 c17 21 18 78 24 864 5 616 4 847 -4 863 -6 12 -21
30 -33 39 -20 16 -80 18 -866 17 -683 0 -850 -2 -869 -13z"/>
<path d="M2281 1797 c-13 -6 -34 -25 -45 -40 -21 -28 -21 -31 -21 -855 0 -780
1 -829 18 -853 10 -15 30 -32 45 -38 19 -8 262 -11 855 -9 l829 3 29 33 29 32
0 833 c0 924 4 864 -66 893 -46 19 -1635 21 -1673 1z"/>
</g>
</svg>
